<svg id="svg8" width="500" height="500" version="1.1" viewBox="0 0 132.29 132.29" xmlns="http://www.w3.org/2000/svg">
 <path id="path2" d="m66.143 14.372c-29.328 0-53.082 23.754-53.082 53.082 0 23.489 15.195 43.328 36.295 50.362 2.6541 0.46443 3.6494-1.128 3.6494-2.5214 0-1.2607-0.0652-5.441-0.0652-9.8866-13.337 2.4552-16.787-3.2513-17.849-6.2372-0.59712-1.526-3.185-6.2372-5.4409-7.4979-1.8578-0.99537-4.512-3.4504-0.0652-3.5167 4.1802-0.0652 7.1661 3.8485 8.1614 5.4409 4.7774 8.0287 12.408 5.7727 15.46 4.3793 0.46446-3.4504 1.8578-5.7727 3.384-7.0998-11.811-1.3272-24.152-5.9054-24.152-26.209 0-5.7727 2.0569-10.55 5.4409-14.266-0.53091-1.3272-2.3887-6.768 0.53091-14.067 0 0 4.4456-1.3934 14.598 5.4409 4.2466-1.1942 8.7586-1.7916 13.271-1.7916 4.512 0 9.024 0.59712 13.271 1.7916 10.152-6.9007 14.598-5.4409 14.598-5.4409 2.9195 7.2988 1.0616 12.74 0.53091 14.067 3.384 3.7158 5.4409 8.4268 5.4409 14.266 0 20.37-12.408 24.882-24.219 26.209 1.9243 1.6587 3.5831 4.8438 3.5831 9.8202 0 7.0997-0.0652 12.806-0.0652 14.598 0 1.3934 0.99537 3.0522 3.6494 2.5214a53.149 53.149 0 0 0 36.162-50.362c0-29.328-23.754-53.082-53.082-53.082" fill="#333333" stroke-width="6.6353"/>
</svg>
