<svg id="svg8" width="500" height="500" version="1.1" viewBox="0 0 132.29 132.29" xmlns="http://www.w3.org/2000/svg">
 <g id="layer2">
  <path id="path2" d="m66.146 12.863c-14.46 0-16.278 0.06545-21.959 0.3197-5.6813 0.26633-9.5509 1.159-12.941 2.4775a25.975 25.975 0 0 0-9.4377 6.1475 25.975 25.975 0 0 0-6.1475 9.4377c-1.3188 3.3835-2.218 7.2598-2.4778 12.921-0.25299 5.6946-0.3197 7.5062-0.3197 21.986 0 14.466 0.06545 16.278 0.3197 21.959 0.26633 5.6746 1.159 9.5443 2.4778 12.934 1.3654 3.5034 3.1836 6.4739 6.1475 9.4377 2.9572 2.9639 5.9277 4.7888 9.4311 6.1475 3.3968 1.3188 7.2598 2.218 12.934 2.4775 5.6879 0.25301 7.4996 0.3197 21.972 0.3197 14.473 0 16.278-0.0655 21.966-0.3197 5.668-0.26631 9.551-1.1589 12.941-2.4775a25.975 25.975 0 0 0 9.4311-6.1475c2.9638-2.9638 4.7821-5.9344 6.1475-9.4377 1.312-3.3901 2.2112-7.2598 2.4775-12.934 0.25298-5.6813 0.3197-7.4929 0.3197-21.966 0-14.473-0.0655-16.285-0.3197-21.972-0.26634-5.668-1.1655-9.5443-2.4775-12.928a25.975 25.975 0 0 0-6.1475-9.4377 25.975 25.975 0 0 0-9.4377-6.1475c-3.3968-1.3188-7.2731-2.218-12.941-2.4775-5.688-0.25299-7.4929-0.3197-21.973-0.3197zm-4.7755 9.6043h4.7821c14.227 0 15.912 0.04784 21.526 0.30636 5.1951 0.23411 8.0191 1.1056 9.8973 1.8316 2.4843 0.96564 4.2626 2.1246 6.1275 3.9895 1.8648 1.8648 3.0171 3.6366 3.9829 6.1275 0.73252 1.8716 1.5985 4.6955 1.8316 9.8906 0.25979 5.6147 0.3129 7.2997 0.3129 21.52 0 14.22-0.0529 15.912-0.3129 21.526-0.23412 5.1951-1.1056 8.0124-1.8316 9.8906a16.651 16.651 0 0 1-3.9896 6.1209c-1.8648 1.8648-3.6366 3.0171-6.1276 3.9829-1.8648 0.73253-4.6889 1.5985-9.8906 1.8381-5.6147 0.25298-7.2997 0.31315-21.526 0.31315-14.227 0-15.918-0.0604-21.533-0.31315-5.1951-0.23915-8.0124-1.1056-9.8906-1.8381a16.651 16.651 0 0 1-6.1275-3.9829 16.651 16.651 0 0 1-3.9962-6.1275c-0.72599-1.8716-1.5985-4.6955-1.8316-9.8906-0.25299-5.6147-0.30636-7.2998-0.30636-21.533 0-14.233 0.05287-15.905 0.30636-21.52 0.23914-5.1951 1.1056-8.0191 1.8384-9.8973 0.96564-2.4843 2.1246-4.2626 3.9895-6.1275 1.8648-1.8648 3.6366-3.0172 6.1275-3.9829 1.8782-0.73253 4.6955-1.5985 9.8906-1.8384 4.9153-0.22656 6.8202-0.29302 16.751-0.29981zm33.222 8.8449a6.3939 6.3939 0 1 0 0 12.788 6.3939 6.3939 0 0 0 0-12.788m-28.44 7.4729a27.367 27.367 0 1 0 0 54.728 27.367 27.367 0 0 0 0-54.728m0 9.5976a17.763 17.763 0 1 1 0 35.526 17.763 17.763 0 0 1 0-35.526" fill="#333333" stroke-width="6.6604"/>
 </g>
</svg>
