<svg id="svg8" width="500" height="500" version="1.1" viewBox="0 0 132.29 132.29" xmlns="http://www.w3.org/2000/svg">
 <g id="layer2">
  <g id="g824" transform="matrix(9.643 0 0 9.643 -10.998 -6.1815)" fill="#333333">
   <path id="path2" d="m4.715 6.542-1.372 1.372a3.0003 3.0003 0 1 0 4.243 4.243l1.828-1.829a3 3 0 0 0-0.828-4.828l-0.586 0.586a1 1 0 0 0-0.154 0.199 2 2 0 0 1 0.861 3.337l-1.827 1.828a2.0011 2.0011 0 1 1-2.83-2.83l0.793-0.792a4 4 0 0 1-0.128-1.287z"/>
   <path id="path4" d="m6.586 4.672a3 3 0 0 0 0.828 4.828l0.775-0.776a2 2 0 0 1-0.896-3.346l1.827-1.828a2.0011 2.0011 0 1 1 2.83 2.83l-0.793 0.792c0.112 0.42 0.155 0.855 0.128 1.287l1.372-1.372a3.0003 3.0003 0 1 0-4.243-4.243z"/>
  </g>
 </g>
</svg>
