<svg id="svg8" width="500" height="500" version="1.1" viewBox="0 0 132.29 132.29" xmlns="http://www.w3.org/2000/svg">
 <g id="layer2">
  <path id="path2" d="m26.126 12.786a13.34 13.34 0 0 0-13.34 13.34v80.04a13.34 13.34 0 0 0 13.34 13.34h80.04a13.34 13.34 0 0 0 13.34-13.34v-80.04a13.34 13.34 0 0 0-13.34-13.34zm10.005 16.675c36.838 0 66.7 29.861 66.7 66.7a6.67 6.67 0 1 1-13.34 0 53.36 53.36 0 0 0-53.36-53.36 6.67 6.67 0 0 1 0-13.34m0 26.68a40.02 40.02 0 0 1 40.02 40.02 6.67 6.67 0 1 1-13.34 0 26.68 26.68 0 0 0-26.68-26.68 6.67 6.67 0 0 1 0-13.34m3.335 46.69a10.005 10.005 0 1 1 0-20.01 10.005 10.005 0 0 1 0 20.01" fill="#333333" stroke-width="6.67"/>
 </g>
</svg>
