<svg id="svg8" width="500" height="500" version="1.1" viewBox="0 0 132.29 132.29" xmlns="http://www.w3.org/2000/svg">
 <g id="layer2">
  <path id="path2" d="m45.938 109.64c40.403 0 62.505-33.478 62.505-62.458q0.0133-1.412-0.0405-2.8238a44.833 44.833 0 0 0 10.967-11.389 44.833 44.833 0 0 1-12.64 3.4662 22.082 22.082 0 0 0 9.6826-12.158 43.495 43.495 0 0 1-13.965 5.3064 21.988 21.988 0 0 0-37.446 20.034 62.365 62.365 0 0 1-45.281-22.945 22.015 22.015 0 0 0 6.812 29.322 22.082 22.082 0 0 1-9.9436-2.7301v0.30121a22.015 22.015 0 0 0 17.612 21.533 21.413 21.413 0 0 1-5.7882 0.7696 20.074 20.074 0 0 1-4.1086-0.38138 21.948 21.948 0 0 0 20.523 15.237 44.164 44.164 0 0 1-27.301 9.4149 40.149 40.149 0 0 1-5.2194-0.30121 62.499 62.499 0 0 0 33.631 9.8031" fill="#333333" stroke-width="6.6915"/>
 </g>
</svg>
