<svg id="svg8" width="500" height="500" version="1.1" viewBox="0 0 132.29 132.29" xmlns="http://www.w3.org/2000/svg">
 <g id="layer2">
  <path id="path821" d="m66.684 28.335h0.54101c5.4017 0 33.49 0 41.052 2.1607 4.8612 1.6205 8.1022 4.8614 9.7226 9.7228 0.541 2.7008 1.0795 5.9417 1.6205 9.1827v3.241c0.541 6.4819 0.541 11.883 0.541 13.504v0.54024c0 1.0802 0 7.5622-0.541 13.504v1.6205c-0.54102 3.7811-1.0795 7.5622-1.6205 10.803-1.6205 4.3213-4.8614 8.1023-9.7226 9.1827-7.5622 2.1607-37.271 2.1607-41.592 2.1607h-1.0795-19.446-4.3204c-7.5624-0.54024-14.584-1.0802-17.825-2.1607-4.8614-1.0802-8.6424-4.8614-9.7229-9.1827-0.54101-3.2409-1.0795-7.0221-1.6205-10.803v-1.6205c-0.54101-4.3213-0.54101-8.6425-0.54101-13.504v-1.0802c0-1.0802 0-6.4819 0.54101-11.883v-4.3215c0.54101-3.2409 1.0795-6.4819 1.6205-9.1827 1.0795-4.8614 4.8615-8.1024 9.7229-9.7228 3.241-0.54025 10.263-1.0802 17.825-1.6205h4.3204c5.9417-0.54025 12.424-0.54025 18.906-0.54025zm-11.343 21.606v32.409l28.088-16.205z" fill="#333333"/>
 </g>
</svg>
